<?xml version="1.0" standalone="no"?>
<!DOCTYPE svg PUBLIC "-//W3C//DTD SVG 20010904//EN"
 "http://www.w3.org/TR/2001/REC-SVG-20010904/DTD/svg10.dtd">
<svg version="1.0" xmlns="http://www.w3.org/2000/svg"
 width="128.000000pt" height="128.000000pt" viewBox="0 0 128.000000 128.000000"
 preserveAspectRatio="xMidYMid meet">
<metadata>
Created by potrace 1.15, written by Peter Selinger 2001-2017
</metadata>
<g transform="translate(0.000000,128.000000) scale(0.100000,-0.100000)"
fill="#000000" stroke="none">
<path d="M317 958 c-274 -92 -298 -102 -295 -122 2 -16 19 -27 73 -46 l70 -25
-17 -34 c-10 -19 -20 -55 -24 -79 -4 -25 -15 -53 -25 -63 -25 -25 -24 -67 0
-93 20 -21 20 -22 -2 -86 -12 -37 -39 -86 -61 -113 -44 -53 -41 -63 23 -91 36
-17 40 -17 71 -1 51 27 73 89 68 193 -3 61 -1 94 9 114 13 24 12 32 -1 60 -29
58 -13 124 42 170 37 31 332 150 376 152 21 1 31 -4 31 -14 0 -17 7 -14 -188
-89 -82 -31 -148 -61 -148 -66 0 -6 74 -34 163 -63 l163 -54 305 104 c266 90
305 106 308 124 3 20 -21 30 -300 123 -167 56 -312 101 -323 100 -11 0 -154
-46 -318 -101z"/>
<path d="M247 643 c-5 -29 -2 -42 13 -58 28 -30 34 -69 17 -104 -15 -30 -14
-31 14 -56 63 -52 272 -93 419 -81 148 12 256 50 304 106 24 29 26 38 26 131
0 54 -4 99 -8 99 -4 0 -88 -27 -187 -60 -99 -33 -191 -60 -205 -60 -14 0 -106
27 -205 60 -99 33 -180 60 -181 60 -1 0 -4 -17 -7 -37z"/>
</g>
</svg>
